# xmcd
#
# Track frame offsets:
#	150
#	12204
#	25258
#	40461
#	52084
#	66517
#	79600
#	94873
#	111416
#	127424
#	139529
#	151276
#	162059
#	171729
#	185743
#	194927
#
# Disc length: 2771 seconds
#
# Revision: 0
# Processed by: cddbd v1.5.2PL0 Copyright (c) Steve Scherf et al.
# Submitted via: EasyCDDAExtractor 12.0.1.1
#
DISCID=f30ad110
DTITLE=Johnny Cash - Johnny Cash Disc 3
DYEAR=2000
DGENRE=Country
TTITLE0=Sang 1
TTITLE1=Sang 2
TTITLE2=Sang 3
TTITLE3=Sang 4
TTITLE4=Sang 5
TTITLE5=Sang 6
TTITLE6=Sang 7
TTITLE7=Sang 8
TTITLE8=Boy Name Sue
TTITLE9=Sang 10
TTITLE10=Sang 11
TTITLE11=Sang 12
TTITLE12=Sang 13
TTITLE13=Sang 14
TTITLE14=Sang 15
TTITLE15=Sang 16
EXTD=
EXTT0=
EXTT1=
EXTT2=
EXTT3=
EXTT4=
EXTT5=
EXTT6=
EXTT7=
EXTT8=
EXTT9=
EXTT10=
EXTT11=
EXTT12=
EXTT13=
EXTT14=
EXTT15=
PLAYORDER=
